REM DIRINDEX 1\2,1\3,1\4,1\5
REM DIRNAME cjc004,folder01,folder02,folder03,folder04
TITLE ""
FILE "1Q_j_2143-2156.mp3" MP3
  TRACK 01 AUDIO
    TITLE "3:cjc004_0128"
    INDEX 01 00:00:00
  TRACK 02 AUDIO
    TITLE "0:"
    INDEX 01 00:00:74
  TRACK 03 AUDIO
    TITLE "4:cjc004_0129"
    INDEX 01 00:01:32
  TRACK 04 AUDIO
    TITLE "0:"
    INDEX 01 00:02:51
  TRACK 05 AUDIO
    TITLE "5:cjc004_0130"
    INDEX 01 00:03:06
  TRACK 06 AUDIO
    TITLE "0:"
    INDEX 01 00:07:27
  TRACK 07 AUDIO
    TITLE "3:cjc004_0131"
    INDEX 01 00:08:07
  TRACK 08 AUDIO
    TITLE "0:"
    INDEX 01 00:09:32
  TRACK 09 AUDIO
    TITLE "4:cjc004_0132"
    INDEX 01 00:09:67
  TRACK 10 AUDIO
    TITLE "0:"
    INDEX 01 00:10:72
  TRACK 11 AUDIO
    TITLE "5:cjc004_0133"
    INDEX 01 00:11:23
  TRACK 12 AUDIO
    TITLE "0:"
    INDEX 01 00:19:22
  TRACK 13 AUDIO
    TITLE "3:cjc004_0134"
    INDEX 01 00:20:02
  TRACK 14 AUDIO
    TITLE "0:"
    INDEX 01 00:22:23
  TRACK 15 AUDIO
    TITLE "4:cjc004_0135"
    INDEX 01 00:22:60
  TRACK 16 AUDIO
    TITLE "0:"
    INDEX 01 00:24:12
  TRACK 17 AUDIO
    TITLE "5:cjc004_0136"
    INDEX 01 00:24:41
  TRACK 18 AUDIO
    TITLE "0:"
    INDEX 01 00:28:55
  TRACK 19 AUDIO
    TITLE "3:cjc004_0137"
    INDEX 01 00:29:36
  TRACK 20 AUDIO
    TITLE "0:"
    INDEX 01 00:30:61
  TRACK 21 AUDIO
    TITLE "4:cjc004_0138"
    INDEX 01 00:31:16
  TRACK 22 AUDIO
    TITLE "0:"
    INDEX 01 00:32:23
  TRACK 23 AUDIO
    TITLE "5:cjc004_0139"
    INDEX 01 00:32:50
  TRACK 24 AUDIO
    TITLE "0:"
    INDEX 01 00:37:30
  TRACK 25 AUDIO
    TITLE "3:cjc004_0140"
    INDEX 01 00:38:10
  TRACK 26 AUDIO
    TITLE "0:"
    INDEX 01 00:39:23
  TRACK 27 AUDIO
    TITLE "4:cjc004_0141"
    INDEX 01 00:39:52
  TRACK 28 AUDIO
    TITLE "0:"
    INDEX 01 00:41:38
  TRACK 29 AUDIO
    TITLE "5:cjc004_0142"
    INDEX 01 00:41:73
  TRACK 30 AUDIO
    TITLE "0:"
    INDEX 01 00:44:71
  TRACK 31 AUDIO
    TITLE "3:cjc004_0143"
    INDEX 01 00:45:45
  TRACK 32 AUDIO
    TITLE "0:"
    INDEX 01 00:46:66
  TRACK 33 AUDIO
    TITLE "4:cjc004_0144"
    INDEX 01 00:47:21
  TRACK 34 AUDIO
    TITLE "0:"
    INDEX 01 00:48:38
  TRACK 35 AUDIO
    TITLE "5:cjc004_0145"
    INDEX 01 00:48:67
  TRACK 36 AUDIO
    TITLE "0:"
    INDEX 01 00:53:49
  TRACK 37 AUDIO
    TITLE "3:cjc004_0146"
    INDEX 01 00:54:27
  TRACK 38 AUDIO
    TITLE "0:"
    INDEX 01 00:55:40
  TRACK 39 AUDIO
    TITLE "4:cjc004_0147"
    INDEX 01 00:56:02
  TRACK 40 AUDIO
    TITLE "0:"
    INDEX 01 00:57:29
  TRACK 41 AUDIO
    TITLE "5:cjc004_0148"
    INDEX 01 00:57:54
  TRACK 42 AUDIO
    TITLE "0:"
    INDEX 01 01:02:20
  TRACK 43 AUDIO
    TITLE "3:cjc004_0149"
    INDEX 01 01:03:02
  TRACK 44 AUDIO
    TITLE "0:"
    INDEX 01 01:04:23
  TRACK 45 AUDIO
    TITLE "4:cjc004_0150"
    INDEX 01 01:04:60
  TRACK 46 AUDIO
    TITLE "0:"
    INDEX 01 01:05:64
  TRACK 47 AUDIO
    TITLE "5:cjc004_0151"
    INDEX 01 01:06:18
  TRACK 48 AUDIO
    TITLE "0:"
    INDEX 01 01:11:25
  TRACK 49 AUDIO
    TITLE "3:cjc004_0152"
    INDEX 01 01:12:09
  TRACK 50 AUDIO
    TITLE "0:"
    INDEX 01 01:13:20
  TRACK 51 AUDIO
    TITLE "4:cjc004_0153"
    INDEX 01 01:13:49
  TRACK 52 AUDIO
    TITLE "0:"
    INDEX 01 01:14:68
  TRACK 53 AUDIO
    TITLE "5:cjc004_0154"
    INDEX 01 01:15:19
  TRACK 54 AUDIO
    TITLE "0:"
    INDEX 01 01:19:21
  TRACK 55 AUDIO
    TITLE "3:cjc004_0155"
    INDEX 01 01:20:00
  TRACK 56 AUDIO
    TITLE "0:"
    INDEX 01 01:21:23
  TRACK 57 AUDIO
    TITLE "4:cjc004_0156"
    INDEX 01 01:21:55
  TRACK 58 AUDIO
    TITLE "0:"
    INDEX 01 01:23:30
  TRACK 59 AUDIO
    TITLE "5:cjc004_0157"
    INDEX 01 01:23:52
  TRACK 60 AUDIO
    TITLE "0:"
    INDEX 01 01:27:44
  TRACK 61 AUDIO
    TITLE "3:cjc004_0158"
    INDEX 01 01:28:20
  TRACK 62 AUDIO
    TITLE "0:"
    INDEX 01 01:29:45
  TRACK 63 AUDIO
    TITLE "4:cjc004_0159"
    INDEX 01 01:30:05
  TRACK 64 AUDIO
    TITLE "0:"
    INDEX 01 01:31:00
  TRACK 65 AUDIO
    TITLE "5:cjc004_0160"
    INDEX 01 01:31:32
  TRACK 66 AUDIO
    TITLE "0:"
    INDEX 01 01:36:68
  TRACK 67 AUDIO
    TITLE "3:cjc004_0161"
    INDEX 01 01:37:58
  TRACK 68 AUDIO
    TITLE "0:"
    INDEX 01 01:38:59
  TRACK 69 AUDIO
    TITLE "4:cjc004_0162"
    INDEX 01 01:39:12
  TRACK 70 AUDIO
    TITLE "0:"
    INDEX 01 01:40:31
  TRACK 71 AUDIO
    TITLE "5:cjc004_0163"
    INDEX 01 01:40:62
  TRACK 72 AUDIO
    TITLE "0:"
    INDEX 01 01:45:71
  TRACK 73 AUDIO
    TITLE "3:cjc004_0164"
    INDEX 01 01:46:53
  TRACK 74 AUDIO
    TITLE "0:"
    INDEX 01 01:47:74
  TRACK 75 AUDIO
    TITLE "4:cjc004_0165"
    INDEX 01 01:48:32
  TRACK 76 AUDIO
    TITLE "0:"
    INDEX 01 01:49:45
  TRACK 77 AUDIO
    TITLE "5:cjc004_0166"
    INDEX 01 01:50:00
  TRACK 78 AUDIO
    TITLE "0:"
    INDEX 01 01:53:37
  TRACK 79 AUDIO
    TITLE "3:cjc004_0167"
    INDEX 01 01:54:29
  TRACK 80 AUDIO
    TITLE "0:"
    INDEX 01 01:55:58
  TRACK 81 AUDIO
    TITLE "4:cjc004_0168"
    INDEX 01 01:56:16
  TRACK 82 AUDIO
    TITLE "0:"
    INDEX 01 01:57:27
  TRACK 83 AUDIO
    TITLE "5:cjc004_0169"
    INDEX 01 01:57:53
  TRACK 84 AUDIO
    TITLE "0:"
    INDEX 01 02:02:73
